<?xml version="1.0" standalone="no"?>
<!DOCTYPE svg PUBLIC "-//W3C//DTD SVG 20010904//EN"
 "http://www.w3.org/TR/2001/REC-SVG-20010904/DTD/svg10.dtd">
<svg version="1.0" xmlns="http://www.w3.org/2000/svg"
 width="925.000000pt" height="925.000000pt" viewBox="0 0 925.000000 925.000000"
 preserveAspectRatio="xMidYMid meet">
<metadata>
Created by potrace 1.11, written by Peter Selinger 2001-2013
</metadata>
<g transform="translate(0.000000,925.000000) scale(0.100000,-0.100000)"
fill="#000000" stroke="none">
<path d="M4484 7355 c-189 -43 -327 -250 -325 -490 0 -33 3 -71 6 -85 3 -14 8
-38 11 -54 5 -33 42 -124 57 -144 14 -17 10 -19 -58 -26 -71 -7 -87 -10 -225
-37 -184 -36 -416 -110 -610 -194 -94 -40 -300 -147 -342 -176 -14 -11 -28
-19 -31 -19 -3 0 -56 -34 -119 -77 -365 -246 -675 -561 -923 -938 -94 -143
-121 -189 -201 -343 -135 -260 -269 -639 -319 -904 -3 -13 -7 -34 -10 -48 -11
-53 -16 -77 -25 -140 -5 -36 -12 -76 -14 -90 -12 -69 -26 -256 -30 -397 -3
-89 -1 -103 13 -104 102 -5 6430 -2 6443 3 12 6 15 18 13 50 -2 24 -6 102 -9
173 -3 72 -8 141 -10 155 -2 14 -7 50 -10 80 -6 54 -31 215 -40 255 -2 11 -12
55 -21 98 -36 173 -113 417 -201 637 -32 79 -144 302 -202 400 -388 663 -956
1161 -1627 1428 -187 74 -462 151 -599 168 -22 3 -43 7 -46 9 -3 2 -37 7 -75
10 -39 4 -71 8 -73 10 -2 2 6 21 17 43 87 170 75 412 -28 568 -97 148 -237
213 -387 179z"/>
<path d="M661 2643 c-51 -18 -82 -44 -108 -93 -27 -50 -30 -123 -9 -173 16
-37 69 -88 109 -105 37 -16 7742 -17 7800 -1 162 45 184 275 34 360 l-42 24
-3875 0 c-2985 0 -3882 -3 -3909 -12z"/>
</g>
</svg>
